<svg width="71" height="41" viewBox="0 0 71 41" fill="none" xmlns="http://www.w3.org/2000/svg">
<path fill-rule="evenodd" clip-rule="evenodd" d="M20.7555 40.0964V28.0114H23.964V40.0964H20.7555ZM35.37 30.9386C35.324 30.9253 34.013 30.5738 32.936 30.5738C31.688 30.5738 31.01 30.9791 31.01 31.554C31.01 32.2831 31.926 32.5378 32.438 32.6951L33.296 32.9605C35.317 33.584 36.237 34.9265 36.237 36.3847C36.237 39.3918 33.513 40.4032 31.13 40.4032C29.474 40.4032 27.923 40.1066 27.77 40.0758V37.3198C28.045 37.3869 29.349 37.765 30.71 37.765C32.259 37.765 32.971 37.3259 32.971 36.648C32.971 36.0409 32.354 35.6904 31.582 35.4562C31.395 35.3937 31.111 35.3071 30.917 35.2472C29.184 34.7148 27.738 33.7249 27.738 31.7446C27.738 29.505 29.466 28.0022 32.336 28.0022C33.852 28.0022 35.277 28.3593 35.369 28.3829V30.9381L35.37 30.9386ZM64.978 34.2019C64.978 37.6277 62.254 40.4022 58.46 40.4022C54.665 40.4022 51.944 37.6277 51.944 34.2009C51.944 30.7824 54.666 28.0048 58.46 28.0048C62.254 28.0048 64.978 30.7823 64.978 34.2019ZM58.46 31.0539C56.613 31.0539 55.241 32.4645 55.241 34.2019C55.241 35.9445 56.613 37.3526 58.46 37.3526C60.304 37.3526 61.68 35.9445 61.68 34.2019C61.68 32.4645 60.304 31.0539 58.46 31.0539ZM16.1715 31.6483C16.0462 31.5847 15.0458 31.0098 13.5561 31.0098C11.5406 31.0098 10.1445 32.3687 10.1445 34.2025C10.1445 35.9814 11.4824 37.3976 13.5576 37.3976C15.0203 37.3976 16.0379 36.8335 16.1715 36.7628V39.9759C15.7852 40.082 14.7224 40.4022 13.3319 40.4022C9.83457 40.4022 6.76367 38.0596 6.76367 34.2009C6.76367 30.6276 9.54397 28.0048 13.333 28.0048C14.7977 28.0048 15.8788 28.3491 16.1715 28.4341V31.6483ZM48.666 31.6483C48.539 31.5847 47.536 31.0098 46.049 31.0098C44.034 31.0098 42.639 32.3687 42.639 34.2025C42.639 35.9814 43.974 37.3976 46.048 37.3976C47.511 37.3976 48.529 36.8335 48.666 36.7628V39.9759C48.276 40.082 47.211 40.4022 45.83 40.4022C42.328 40.4022 39.254 38.0596 39.254 34.2009C39.254 30.6276 42.035 28.0048 45.83 28.0048C47.289 28.0048 48.372 28.3491 48.666 28.4341V31.6483Z" fill="#050038"/>
<path fill-rule="evenodd" clip-rule="evenodd" d="M71 11.6699C70.998 10.8414 70.307 10.1707 69.458 10.1717C68.607 10.1707 67.917 10.8414 67.915 11.6704V14.8128C67.901 15.3575 68.192 15.8668 68.675 16.1424C69.158 16.4191 69.756 16.4191 70.24 16.1424C70.723 15.8657 71.013 15.3564 70.999 14.8128V11.6699H71ZM62.522 7.5458C62.522 6.7203 61.834 6.0481 60.962 6.0481C60.113 6.0466 59.424 6.7162 59.422 7.5437V7.5448V14.8133C59.422 15.6408 60.11 16.3115 60.959 16.3115H60.962C61.833 16.3115 62.522 15.6418 62.522 14.8123V7.5432V7.5453V7.5458ZM54.029 1.902C54.028 1.074 53.338 0.403768 52.489 0.404788H52.488C51.639 0.403248 50.949 1.0729 50.947 1.9009V1.9014V17.7984C50.921 18.3497 51.209 18.8708 51.696 19.1526C52.184 19.435 52.792 19.4339 53.279 19.1501C53.765 18.8688 54.053 18.3497 54.028 17.7995V1.902H54.029ZM45.533 7.5458C45.532 6.7183 44.842 6.0481 43.993 6.0491C43.144 6.0476 42.454 6.7178 42.452 7.5453V7.5458V14.8128C42.454 15.6403 43.143 16.3105 43.993 16.309C44.842 16.3105 45.532 15.6403 45.533 14.8128V7.5437V7.5458ZM37.04 11.6699C37.038 10.8439 36.35 10.1758 35.503 10.1768C34.655 10.1748 33.965 10.8419 33.959 11.6689V14.8133C33.96 15.6408 34.65 16.311 35.499 16.3095C36.349 16.3115 37.039 15.6413 37.04 14.8138V14.8133V11.6704V11.6699ZM28.561 7.5458C28.559 6.7147 27.867 6.043 27.015 6.044C26.163 6.043 25.47 6.7147 25.469 7.5458V14.8128C25.47 15.6429 26.162 16.3146 27.014 16.3136H27.015C27.866 16.3151 28.558 15.6434 28.56 14.8133V14.8128V7.5437V7.5458H28.561ZM20.0704 1.902C20.0704 1.077 19.3762 0.406838 18.525 0.406838C17.6728 0.406838 16.9786 1.0755 16.9786 1.902V17.7984C16.9802 18.629 17.6723 19.3012 18.5245 19.2997C19.3767 19.3012 20.0688 18.629 20.0704 17.7984V1.902ZM11.5813 7.5458C11.5798 6.7147 10.8877 6.043 10.0349 6.044C9.1827 6.043 8.4906 6.7147 8.4891 7.5458V14.8128C8.4906 15.6429 9.1822 16.3146 10.0339 16.3136H10.0344C10.8866 16.3151 11.5782 15.6434 11.5803 14.8133V14.8128V7.5437V7.5458H11.5813ZM3.0912 11.6704C3.0912 10.846 2.3971 10.1763 1.5459 10.1763C0.694698 10.1763 0 10.846 0 11.6694V14.8123C0.0016 15.6429 0.693598 16.3151 1.5459 16.3136C2.3976 16.3151 3.0902 15.6434 3.0917 14.8128V11.6699L3.0912 11.6704Z" fill="#050038"/>
</svg>
