<svg width="96" height="18" viewBox="0 0 96 18" fill="none" xmlns="http://www.w3.org/2000/svg">
<path d="M90.9121 15.4563C90.9121 14.0515 92.0531 12.9119 93.4571 12.9119C94.8611 12.9119 96.0001 14.0516 96.0001 15.4563C96.0001 16.861 94.8611 17.9999 93.4571 17.9999C92.0531 17.9999 90.9121 16.861 90.9121 15.4563Z" fill="#050038"/>
<path d="M9.7654 8.71791C9.7654 7.10631 9.454 5.91071 8.8312 5.13171C8.2075 4.35351 7.263 3.96481 5.993 3.96481H4.642V13.82H5.6756C7.0862 13.82 8.1198 13.4018 8.7781 12.5625C9.4356 11.7247 9.7654 10.4429 9.7654 8.71791ZM14.5833 8.55001C14.5833 11.4861 13.794 13.7485 12.2156 15.3366C10.6371 16.9254 8.4181 17.7198 5.5578 17.7198H0V0.126114H5.9458C8.7038 0.126114 10.833 0.848314 12.3333 2.29211C13.8331 3.73661 14.5833 5.82161 14.5833 8.55001ZM29.9784 17.7196H34.401V0.0522137H29.9784V17.7196ZM40.614 11.1296C40.614 12.256 40.761 13.1152 41.055 13.7057C41.349 14.2969 41.843 14.5921 42.536 14.5921C43.222 14.5921 43.707 14.2969 43.99 13.7057C44.273 13.1152 44.413 12.2561 44.413 11.1296C44.413 10.009 44.271 9.16391 43.984 8.59331C43.697 8.02121 43.207 7.73481 42.513 7.73481C41.834 7.73481 41.349 8.01971 41.055 8.58661C40.761 9.15431 40.614 10.0017 40.614 11.1296ZM48.915 11.1296C48.915 13.2757 48.352 14.9499 47.224 16.1499C46.097 17.3507 44.519 17.9515 42.491 17.9515C40.546 17.9515 38.998 17.3375 37.848 16.1094C36.698 14.8814 36.123 13.2219 36.123 11.1296C36.123 8.99011 36.686 7.32771 37.814 6.14231C38.942 4.95701 40.523 4.36431 42.56 4.36431C43.818 4.36431 44.931 4.63891 45.895 5.18741C46.861 5.73601 47.606 6.52151 48.129 7.54491C48.653 8.56671 48.915 9.76241 48.915 11.1296ZM50.671 17.7197H55.094V10.9581V4.59631H50.671V17.7197ZM50.671 3.00901H55.094V0.0515137H50.671V3.00901ZM64.056 14.3724C64.653 14.3724 65.364 14.2207 66.194 13.9196V17.2216C65.597 17.4837 65.03 17.6715 64.492 17.7827C63.953 17.8953 63.32 17.9513 62.597 17.9513C61.112 17.9513 60.041 17.578 59.384 16.8329C58.729 16.0878 58.401 14.9437 58.401 13.3999V7.99011H56.852V4.59751H58.401V1.24621L62.858 0.470913V4.59751H65.68V7.99011H62.858V13.098C62.858 13.9476 63.258 14.3724 64.056 14.3724ZM74.293 14.3724C74.89 14.3724 75.601 14.2207 76.431 13.9196V17.2216C75.835 17.4837 75.267 17.6715 74.729 17.7827C74.189 17.8953 73.559 17.9513 72.834 17.9513C71.349 17.9513 70.278 17.578 69.622 16.8329C68.966 16.0878 68.638 14.9437 68.638 13.3999V7.99011H67.088V4.59751H68.638V1.19541L73.094 0.470913V4.59751H75.918V7.99011H73.094V13.098C73.094 13.9476 73.494 14.3724 74.293 14.3724ZM82.012 9.53091C82.072 8.81231 82.278 8.28592 82.628 7.94942C82.98 7.61372 83.414 7.44591 83.934 7.44591C84.501 7.44591 84.952 7.63431 85.286 8.01421C85.622 8.39191 85.797 8.89771 85.812 9.53091H82.012ZM88.249 5.91151C87.198 4.88081 85.706 4.36471 83.777 4.36471C81.748 4.36471 80.188 4.95741 79.093 6.14271C78 7.32811 77.453 9.02881 77.453 11.2448C77.453 13.3909 78.044 15.0459 79.224 16.2077C80.404 17.3695 82.061 17.9511 84.196 17.9511C85.22 17.9511 86.102 17.8812 86.842 17.7421C87.576 17.6044 88.288 17.3555 88.977 16.9963L88.298 14.0388C87.796 14.2435 87.319 14.4011 86.869 14.5049C86.218 14.6558 85.504 14.7316 84.726 14.7316C83.874 14.7316 83.201 14.5233 82.707 14.1066C82.214 13.6891 81.951 13.1134 81.921 12.3801H89.827V10.365C89.827 8.42651 89.301 6.94151 88.249 5.91151ZM20.4531 9.53091C20.5135 8.81231 20.719 8.28592 21.0693 7.94942C21.4205 7.61372 21.8556 7.44591 22.3761 7.44591C22.9415 7.44591 23.3922 7.63431 23.7271 8.01421C24.0636 8.39191 24.238 8.89771 24.2535 9.53091H20.4531ZM26.6913 5.91151C25.6393 4.88081 24.1484 4.36471 22.2179 4.36471C20.1889 4.36471 18.6288 4.95741 17.5354 6.14271C16.4421 7.32811 15.8944 9.02881 15.8944 11.2448C15.8944 13.3909 16.4848 15.0459 17.6658 16.2077C18.8452 17.3695 20.5025 17.9511 22.6368 17.9511C23.6616 17.9511 24.5437 17.8812 25.2828 17.7421C26.0176 17.6044 26.7288 17.3555 27.4193 16.9963L26.739 14.0388C26.2376 14.2435 25.7605 14.4011 25.3107 14.5049C24.6584 14.6558 23.9451 14.7316 23.1674 14.7316C22.3156 14.7316 21.642 14.5233 21.1487 14.1066C20.6546 13.6891 20.3926 13.1134 20.3624 12.3801H28.2681V10.365C28.2681 8.42651 27.7424 6.94151 26.6911 5.91151" fill="#050038"/>
</svg>
