<svg width="54" height="64" viewBox="0 0 54 64" fill="none" xmlns="http://www.w3.org/2000/svg">
<g clip-path="url(#clip0_1_1558)">
<path d="M24.4868 36.6874H30.9592V34.5268H30.2485C30.2485 35.3532 29.644 35.9625 28.7207 35.9625H27.7242V32.737H28.7987V32.0214H24.4868V32.737H25.5731V35.9625H24.4868V36.6851V36.6874Z" fill="#050038"/>
<path d="M34.0721 36.6898L36.5892 36.6922L38.7262 32.7392H39.7982V32.0214H36.575V32.7392H37.5077L35.9492 35.6153L34.3719 32.7392H35.503V32.0214H30.8276L30.8252 32.7392H31.8972L34.0721 36.6898Z" fill="#050038"/>
<path d="M11.5987 32.0214H6.92326L6.9209 32.7392H7.99058L10.1677 36.6898L12.6849 36.6922L14.8219 32.7392H15.8939V32.0214H12.6707V32.7392H13.6011L12.045 35.6153L10.4676 32.7392H11.5987V32.0214Z" fill="#050038"/>
<path d="M16.5203 34.3594C16.5203 35.7338 17.6278 36.827 19.8475 36.827C22.0671 36.827 23.1627 35.7338 23.1627 34.3594C23.1627 33.004 22.001 31.9225 19.8333 31.9225C17.668 31.9225 16.5181 33.004 16.5181 34.3594H16.5203ZM20.9903 34.3712C20.9762 35.2189 20.6243 36.1021 19.812 36.0879C19.021 36.0737 18.6739 35.2001 18.6881 34.3311C18.7047 33.4315 19.1343 32.6474 19.8759 32.6593C20.6173 32.6734 21.0068 33.4716 20.9927 34.3712H20.9903Z" fill="#050038"/>
<path d="M40.4165 34.3594C40.4165 35.7338 41.524 36.827 43.7436 36.827C45.9633 36.827 47.0589 35.7338 47.0589 34.3594C47.0589 33.004 45.8972 31.9225 43.7318 31.9225C41.5665 31.9225 40.4165 33.004 40.4165 34.3594ZM43.7719 32.6593C44.511 32.6734 44.903 33.4716 44.8865 34.3712C44.8699 35.2189 44.5205 36.1021 43.7082 36.0879C42.9172 36.0737 42.57 35.2001 42.5842 34.3311C42.6007 33.4315 43.0305 32.6474 43.7719 32.6593Z" fill="#050038"/>
<path d="M48.9336 19.5161L46.2251 22.2245C48.5463 25.8067 49.897 30.0783 49.897 34.6664C49.897 47.3159 39.6418 57.5712 26.9922 57.5712C14.3426 57.5712 4.08736 47.3159 4.08736 34.6664C4.08736 22.0168 14.3426 11.7616 26.9922 11.7616C31.5897 11.7616 35.8708 13.1169 39.46 15.45L42.1684 12.7415C37.8614 9.75442 32.631 8.00232 26.9922 8.00232C12.267 8.00232 0.328125 19.9388 0.328125 34.6664C0.328125 49.3916 12.2646 61.3304 26.9922 61.3304C41.7174 61.3304 53.6562 49.394 53.6562 34.6664C53.6562 29.0393 51.9112 23.8185 48.9359 19.5161H48.9336Z" fill="#050038"/>
<path d="M40.4023 9.05237V9.80091C42.0197 10.677 43.5404 11.7112 44.9501 12.873L41.1508 16.6723C42.5841 17.7963 43.8781 19.0903 45.0045 20.5212L48.7991 16.7267C49.9632 18.1387 50.9975 19.6617 51.8736 21.2557H52.6032V9.05237H40.3999H40.4023Z" fill="#050038"/>
</g>
<defs>
<clipPath id="clip0_1_1558">
<rect width="53.3281" height="63.9938" fill="white" transform="translate(0.328125 0.00311279)"/>
</clipPath>
</defs>
</svg>
