<svg width="90" height="54" viewBox="0 0 90 54" fill="none" xmlns="http://www.w3.org/2000/svg">
<path d="M5.10882 9.91458V13.6563H0.90625V18.5355H5.10882V38.1498C5.10882 39.6381 6.63128 40.8303 8.54565 40.8303C10.46 40.8303 12.0187 39.6471 12.0187 38.159V18.5446H17.605V13.6655H12.0187V9.91458C12.0187 5.40126 15.5158 4.56882 20.3032 5.64529V0.766057C13.5622 -0.755641 5.10882 -0.0481583 5.10882 9.91458ZM26.6342 18.5446H26.4895V13.6655H20.8971V38.1651C20.8971 39.6533 22.4045 40.8456 24.334 40.8456C26.2634 40.8456 27.7979 39.6533 27.7979 38.1651V25.8299C27.7979 20.0114 31.5453 18.5324 36.0824 18.5324V13.0433C31.9793 13.0219 28.1356 14.3912 26.6342 18.5446ZM74.9307 13.0556C68.268 13.0556 62.8716 16.3947 62.8716 22.9572C62.8716 26.452 64.4061 29.0319 66.8511 30.6817C66.6702 30.8005 66.4953 30.9225 66.3235 31.0506C63.2937 33.3164 62.9681 37.2228 65.7446 39.3544C64.3851 40.5742 62.4585 42.7577 62.4585 45.8011C62.4585 50.6314 66.9204 53.7511 74.9276 53.7511C82.9348 53.7511 89.0488 49.9545 89.0488 44.1086C89.0488 38.2626 85.0331 35.9664 77.7072 35.9664H72.9167C69.5613 35.9664 69.8477 33.6214 70.9541 32.612C71.0114 32.5601 71.0718 32.5113 71.1381 32.4595C72.385 32.7246 73.6565 32.8534 74.9307 32.8438C81.5963 32.8438 86.9897 29.4893 86.9897 22.9481C87.0047 21.5936 86.7409 20.2508 86.2148 19.0051C87.2353 18.7228 88.2864 18.5702 89.3442 18.5508V13.6715C86.3807 13.6715 84.4693 13.8728 82.4435 14.87C80.3904 13.6472 77.7766 13.0402 74.9307 13.0402V13.0556ZM71.2677 40.8548H77.7012C80.3421 40.8548 82.142 41.6843 82.142 44.1086C82.142 47.3655 79.3804 48.8658 74.9065 48.8658C68.0389 48.8505 68.4489 43.1418 71.2677 40.8395V40.8548ZM74.9307 27.9646C72.0817 27.9646 69.7664 26.8454 69.7664 22.9542C69.7664 19.0631 72.0817 17.9439 74.9307 17.9439C77.7796 17.9439 80.0979 19.06 80.0979 22.9542C80.0979 26.8484 77.7856 27.9646 74.9307 27.9646ZM48.6209 13.0402C41.1321 13.0402 36.5618 17.7274 36.5618 26.9399C36.5618 36.1525 41.1382 40.8395 48.6209 40.8395C56.1035 40.8395 60.6799 36.1525 60.6799 26.9399C60.6799 17.7274 56.1125 13.0402 48.6209 13.0402ZM48.6209 35.9511C45.7689 35.9511 43.4565 34.7801 43.4565 26.9399C43.4565 19.0997 45.784 17.9348 48.6209 17.9348C51.4577 17.9348 53.7851 19.1027 53.7851 26.9399C53.7851 34.7772 51.4728 35.9511 48.6209 35.9511Z" fill="#050038"/>
</svg>
