<svg width="183" height="30" viewBox="0 0 183 30" fill="none" xmlns="http://www.w3.org/2000/svg">
<path d="M0.431196 2.52391C1.27465 0.87331 3.39616 0.0555682 5.14323 0.635454C6.23599 0.981184 7.12241 1.86001 7.53984 2.92024C9.87245 8.43568 12.2155 13.9472 14.5472 19.4626C14.6112 19.345 14.6724 19.2256 14.7258 19.1024C16.5178 14.8546 18.3241 10.6116 20.1247 6.36664C20.9873 4.37124 22.3818 2.52484 24.3324 1.49412C25.4166 0.915266 26.6296 0.598124 27.8503 0.49786C31.0092 0.153055 34.2216 1.65845 36.1942 4.10757C38.0272 2.53625 40.1429 1.19991 42.5224 0.661264C43.809 0.364174 45.1453 0.421455 46.4464 0.580952C48.073 0.792072 49.6806 1.35283 50.9884 2.36154C51.6475 2.8572 52.2148 3.46475 52.7277 4.1086C54.9868 1.925 58.0378 0.482641 61.2081 0.450145C63.2284 0.40716 65.2706 0.943959 66.9709 2.04625C68.9281 3.29188 70.3761 5.3093 70.9024 7.57218C71.1604 8.61616 71.1719 9.69839 71.169 10.7673C71.169 15.3522 71.1681 19.9372 71.1699 24.5222C71.1575 25.1327 71.1347 25.7516 70.9665 26.3429C70.6723 27.4748 69.9206 28.5255 68.8268 28.9954C67.287 29.668 65.2572 29.4158 64.1377 28.09C63.236 27.0708 63.0086 25.6503 63.0478 24.3322C63.0498 20.0662 63.0478 15.8003 63.0487 11.5343C63.0478 10.4273 62.6409 9.2963 61.8251 8.52926C61.0792 7.81569 60.0389 7.46327 59.0159 7.45556C57.8792 7.42697 56.7033 7.7871 55.8666 8.578C55.0623 9.32777 54.6306 10.4349 54.6382 11.5276C54.6382 15.9226 54.6391 20.3165 54.6373 24.7113C54.6315 25.85 54.3689 27.0345 53.6419 27.9381C53.0678 28.6784 52.1938 29.1627 51.2702 29.2954C50.2394 29.4453 49.1247 29.2945 48.2583 28.6879C47.4779 28.1539 46.9612 27.3 46.7186 26.3973C46.4702 25.5405 46.5113 24.6398 46.5103 23.7581C46.5103 19.6822 46.5094 15.6073 46.5113 11.5314C46.5017 10.518 46.1684 9.48542 45.4816 8.72701C44.7117 7.86155 43.533 7.44322 42.3915 7.45464C41.2424 7.446 40.0551 7.83389 39.2413 8.66778C38.4618 9.43667 38.0845 10.5447 38.0864 11.627C38.0864 16.0534 38.0854 20.4808 38.0864 24.9072C38.0787 26.0248 37.7597 27.1768 37.0252 28.0393C36.4864 28.6831 35.7156 29.1177 34.8922 29.2678C33.7097 29.4865 32.3896 29.2849 31.4562 28.4835C30.4294 27.6114 29.9882 26.2245 29.9843 24.9101C29.9805 19.5247 29.9843 14.1401 29.9824 8.7556C29.9929 8.33439 29.7875 7.90937 29.4245 7.68673C28.8696 7.31427 27.9955 7.49382 27.73 8.13664C25.2045 13.6386 22.6751 19.1387 20.1534 24.6427C19.6041 25.7879 19.0242 26.9475 18.1531 27.8875C17.5188 28.5733 16.6735 29.0662 15.7517 29.2372C14.3036 29.5141 12.6865 29.3155 11.5088 28.3698C10.265 27.3697 9.54769 25.8968 8.89241 24.4793C6.03825 18.2628 3.17455 12.051 0.325168 5.83365C-0.13142 4.78772 -0.117093 3.53354 0.431196 2.52391Z" fill="#050038"/>
<path d="M166.767 1.39795C168.645 0.886968 170.637 0.83154 172.548 1.18498C174.67 1.57565 176.682 2.57007 178.255 4.04965C181.206 6.78917 182.594 10.91 182.532 14.8759C182.481 15.7986 181.644 16.6097 180.714 16.5915C174.232 16.5934 167.749 16.5906 161.266 16.5924C161.415 18.4704 162.025 20.3292 163.097 21.8852C164.156 23.4279 165.712 24.6238 167.481 25.2342C169.307 25.8847 171.315 25.921 173.198 25.5064C174.992 25.1081 176.652 24.1988 178.029 22.9914C178.345 22.722 178.636 22.3972 179.04 22.2578C179.741 21.9903 180.585 22.2769 181.017 22.8815C181.489 23.4966 181.448 24.4452 180.912 25.0098C179.59 26.3508 178.042 27.4952 176.3 28.2288C174.529 28.9825 172.595 29.289 170.677 29.2986C168.659 29.3053 166.629 28.8869 164.808 28.0101C161.648 26.5314 159.189 23.7002 158.066 20.4085C157.248 18.094 157.049 15.5895 157.315 13.1585C157.699 9.79041 159.208 6.50545 161.727 4.20339C163.153 2.8871 164.892 1.90997 166.767 1.39795ZM166.774 5.04787C165.135 5.7709 163.783 7.06138 162.868 8.59166C161.946 10.0989 161.442 11.8346 161.249 13.5825C161.716 13.615 162.185 13.5921 162.654 13.5988C167.94 13.6007 173.228 13.5941 178.514 13.6017C178.523 13.1432 178.429 12.6923 178.358 12.2415C178.028 10.4238 177.333 8.63845 176.154 7.19989C175.105 5.90366 173.616 4.97239 171.991 4.59889C170.262 4.20822 168.4 4.31805 166.774 5.04787Z" fill="#050038"/>
<path d="M74.387 1.10333C75.0556 0.918023 75.8389 1.06138 76.3374 1.5628C76.6278 1.83603 76.8341 2.18752 76.9679 2.56102C79.2795 9.24559 81.5844 15.9329 83.8864 22.6213C84.2169 21.8256 84.4568 20.9936 84.7577 20.1856C86.7874 14.312 88.822 8.44132 90.8623 2.5715C91.0887 1.89043 91.5998 1.24668 92.3295 1.08719C93.045 0.938179 93.8693 1.01839 94.4367 1.51796C94.7959 1.82266 95.0184 2.25056 95.1722 2.68905C97.3463 8.99436 99.5117 15.3035 101.682 21.6107C101.81 21.946 101.893 22.2994 102.054 22.6222C104.395 15.8823 106.745 9.14522 109.096 2.41005C109.275 1.92961 109.591 1.47786 110.057 1.24092C110.753 0.885631 111.651 0.977256 112.263 1.46253C112.832 1.89434 113.113 2.66992 112.936 3.36436C112.806 3.87535 112.608 4.36546 112.433 4.86112C109.902 11.9087 107.351 18.9504 104.816 25.997C104.615 26.5328 104.443 27.0802 104.219 27.6075C103.916 28.2761 103.342 28.8683 102.606 29.0298C101.898 29.1683 101.094 29.0603 100.549 28.5531C99.953 28.0326 99.7725 27.234 99.5165 26.5205C97.3634 20.3021 95.199 14.0875 93.0411 7.87099C93.0144 7.81752 92.96 7.7115 92.9332 7.65802C92.0793 9.99155 91.2884 12.35 90.4554 14.6921C89.0351 18.746 87.6166 22.8009 86.2009 26.8576C86.0051 27.4193 85.8293 28.022 85.388 28.45C84.8044 29.0794 83.8368 29.218 83.043 28.9696C82.2692 28.7213 81.7363 28.0153 81.4774 27.2722C78.7341 19.6114 75.9735 11.9573 73.2321 4.29563C73.0802 3.85437 72.8854 3.4092 72.9092 2.93359C72.9045 2.07965 73.576 1.31157 74.387 1.10333Z" fill="#050038"/>
<path d="M122.909 1.1214C125.084 0.969509 127.3 0.956141 129.432 1.46908C131.04 1.85214 132.594 2.56088 133.837 3.66512C135.321 4.94222 136.267 6.75623 136.689 8.65127C137.165 10.6277 137.012 12.6708 137.038 14.6835C137.038 18.8243 137.036 22.9651 137.039 27.1068C137.053 27.7229 136.778 28.3476 136.286 28.7249C135.699 29.1815 134.857 29.2227 134.189 28.9265C133.561 28.6476 133.147 27.979 133.14 27.297C133.131 26.4134 133.155 25.5298 133.13 24.6462C132.143 25.8498 130.99 26.933 129.627 27.7001C127.772 28.7728 125.622 29.2933 123.485 29.2991C121.324 29.3516 119.134 28.8635 117.243 27.8032C115.708 26.9378 114.394 25.6206 113.696 23.9871C112.973 22.3376 112.906 20.4587 113.265 18.7106C113.643 16.9052 114.719 15.2699 116.208 14.1848C118.088 12.7988 120.421 12.1808 122.716 11.9592C126.215 11.6745 129.764 12.05 133.135 13.0291C133.195 11.2495 133.04 9.36577 132.073 7.82026C131.292 6.52218 129.986 5.60232 128.557 5.14471C127.386 4.76268 126.147 4.61459 124.919 4.63845C123.246 4.61274 121.553 4.78849 119.968 5.34534C119.455 5.51347 118.97 5.75318 118.465 5.93849C117.786 6.18498 116.991 5.94137 116.53 5.39881C115.832 4.62796 116.003 3.20092 116.962 2.7214C118.821 1.82355 120.849 1.27431 122.909 1.1214ZM121.692 15.2967C120.344 15.6654 119.016 16.3417 118.161 17.4793C117.289 18.6065 117.029 20.1166 117.251 21.5026C117.457 22.7902 118.231 23.9546 119.298 24.6959C120.968 25.889 123.11 26.2147 125.118 26.0351C127.186 25.8527 129.244 25.1114 130.821 23.7369C132.203 22.5496 133.118 20.8044 133.183 18.9723C133.194 17.999 133.186 17.0256 133.185 16.0532C131.479 15.5394 129.723 15.2002 127.952 15.0178C125.869 14.8258 123.731 14.7474 121.692 15.2967Z" fill="#050038"/>
<path d="M141.985 3.02871C141.969 1.97794 142.875 1.00265 143.932 0.980751C145.025 0.906195 146.046 1.83757 146.07 2.9341C146.087 4.50161 146.07 6.07097 146.076 7.63951C146.414 7.05963 146.693 6.4455 147.088 5.89903C148.757 3.47573 151.37 1.66275 154.283 1.13829C155.031 1.03042 155.864 0.889022 156.55 1.29974C157.756 1.97887 157.846 3.93993 156.734 4.74996C156.256 5.14258 155.622 5.176 155.039 5.2667C152.962 5.63063 150.961 6.57918 149.472 8.09034C148.232 9.30533 147.358 10.8604 146.824 12.5043C146.248 14.2819 146.041 16.1637 146.076 18.0274C146.076 20.9885 146.075 23.9496 146.076 26.9108C146.083 27.4753 145.876 28.0493 145.471 28.4486C144.978 28.9683 144.188 29.1631 143.503 28.9701C142.832 28.8088 142.274 28.2662 142.079 27.6071C141.948 27.2288 141.99 26.8248 141.986 26.4332C141.986 18.6319 141.987 10.8308 141.985 3.02871Z" fill="#050038"/>
</svg>
